<svg width="212" height="185" viewBox="0 0 212 185" fill="none" xmlns="http://www.w3.org/2000/svg">
<path d="M103.822 100.617L88.8492 22.6104M103.822 100.617L138.204 37.2135M103.822 100.617L19.7156 114.665M103.822 100.617L148.371 83.0561M103.822 100.617L79.2371 76.9561M103.822 100.617L93.4705 130.378M103.822 169.011L93.4705 130.378M148.371 83.0561L200.683 97.1047M148.371 83.0561L168.334 139.435M148.371 83.0561C159.77 75.1692 182.087 59.6912 180.165 60.8742C178.242 62.0572 158.168 76.1551 148.371 83.0561ZM44.4854 62.7227L79.2371 76.9561M79.2371 76.9561L44.4854 83.0561M79.2371 76.9561L67.9612 42.5741M93.4705 130.378C62.4158 139.805 51.3618 142.467 50.0309 142.762M93.4705 130.378L79.2371 173.447" stroke="black" stroke-opacity="0.22" stroke-width="3" stroke-dasharray="6 6"/>
<path d="M28.3202 99.8184C24.9879 97.9721 21.1412 97.2721 17.3721 97.8262C13.6031 98.3802 10.1205 100.158 7.46054 102.885C4.80053 105.612 3.11047 109.138 2.65048 112.919C2.19049 116.701 2.98606 120.529 4.91475 123.814C6.84344 127.099 9.79834 129.66 13.3247 131.101C16.851 132.543 20.7533 132.785 24.4311 131.792C28.1088 130.798 31.358 128.623 33.6788 125.602C35.9995 122.581 37.263 118.881 37.2749 115.072L34.0028 115.061C33.9932 118.154 32.9676 121.157 31.0839 123.609C29.2002 126.061 26.5628 127.826 23.5776 128.633C20.5925 129.439 17.425 129.242 14.5628 128.072C11.7005 126.902 9.30203 124.824 7.73654 122.158C6.17105 119.491 5.5253 116.384 5.89867 113.314C6.27203 110.245 7.64383 107.383 9.80292 105.169C11.962 102.956 14.7887 101.513 17.848 101.063C20.9073 100.614 24.0296 101.182 26.7344 102.681L28.3202 99.8184Z" fill="#39A2DB"/>
<path d="M24.5626 106.6C29.2112 109.176 30.8917 115.032 28.3162 119.681C25.7406 124.329 19.8843 126.01 15.2357 123.434C10.5872 120.859 8.90666 115.002 11.4822 110.354C14.0578 105.705 19.9141 104.025 24.5626 106.6Z" fill="#39A2DB"/>
<path d="M38.7309 76.9619C37.3192 77.9796 36.281 79.4331 35.7762 81.0986C35.2714 82.7641 35.328 84.5493 35.9372 86.1795C36.5464 87.8097 37.6744 89.1945 39.1477 90.1209C40.621 91.0472 42.3579 91.4636 44.0911 91.3061C45.8243 91.1486 47.4577 90.4259 48.7399 89.2492C50.0221 88.0725 50.882 86.507 51.1874 84.7937C51.4927 83.0804 51.2265 81.3142 50.4298 79.767C49.6331 78.2197 48.3499 76.9772 46.7779 76.2307L46.1367 77.5809C47.4127 78.1869 48.4542 79.1954 49.1009 80.4513C49.7476 81.7071 49.9636 83.1407 49.7158 84.5314C49.4679 85.9221 48.7699 87.1928 47.7292 88.1479C46.6884 89.103 45.3626 89.6896 43.9558 89.8175C42.549 89.9453 41.1392 89.6073 39.9434 88.8554C38.7475 88.1035 37.8319 86.9795 37.3374 85.6563C36.8429 84.333 36.797 82.884 37.2068 81.5321C37.6165 80.1803 38.4591 79.0005 39.605 78.1745L38.7309 76.9619Z" fill="#39A2DB"/>
<path d="M40.8021 79.8351C42.7715 78.4154 45.5189 78.861 46.9386 80.8303C48.3583 82.7997 47.9127 85.5471 45.9434 86.9668C43.974 88.3865 41.2266 87.9409 39.8069 85.9715C38.3872 84.0022 38.8328 81.2548 40.8021 79.8351Z" fill="#39A2DB"/>
<path d="M50.8056 57.5521C50.1558 55.9376 48.9934 54.5815 47.4974 53.6923C46.0014 52.8032 44.2546 52.4304 42.5259 52.6312C40.7972 52.8321 39.1824 53.5955 37.9301 54.8039C36.6778 56.0124 35.8573 57.5989 35.5949 59.3193C35.3326 61.0397 35.6429 62.7987 36.4781 64.3255C37.3133 65.8523 38.6272 67.0623 40.2174 67.7692C41.8077 68.4762 43.5862 68.6409 45.2793 68.2381C46.9723 67.8353 48.4861 66.8873 49.5875 65.5399L48.4302 64.5938C47.5362 65.6874 46.3075 66.457 44.9333 66.7839C43.559 67.1109 42.1154 66.9772 40.8247 66.4033C39.5339 65.8295 38.4675 64.8474 37.7895 63.6081C37.1116 62.3688 36.8597 60.9411 37.0726 59.5446C37.2856 58.1482 37.9516 56.8604 38.9681 55.8796C39.9846 54.8987 41.2953 54.279 42.6984 54.116C44.1016 53.953 45.5194 54.2556 46.7337 54.9773C47.948 55.699 48.8915 56.7998 49.4189 58.1102L50.8056 57.5521Z" fill="#39A2DB"/>
<path d="M47.5199 58.8746C48.4264 61.1267 47.3355 63.6873 45.0833 64.5938C42.8312 65.5003 40.2706 64.4095 39.3641 62.1573C38.4576 59.9051 39.5485 57.3445 41.8006 56.438C44.0528 55.5315 46.6134 56.6224 47.5199 58.8746Z" fill="#39A2DB"/>
<path d="M74.383 49.8157C75.614 48.5855 76.4067 46.9849 76.6389 45.2602C76.8712 43.5354 76.5302 41.7821 75.6684 40.2702C74.8066 38.7582 73.4718 37.5714 71.8695 36.8923C70.2671 36.2132 68.486 36.0796 66.8002 36.5119C65.1145 36.9443 63.6175 37.9186 62.5397 39.2851C61.462 40.6515 60.8632 42.3343 60.8354 44.0743C60.8077 45.8144 61.3526 47.5154 62.3862 48.9155C63.4199 50.3156 64.8851 51.3372 66.5562 51.823L66.9735 50.3876C65.6171 49.9933 64.4278 49.1641 63.5888 48.0277C62.7498 46.8912 62.3075 45.5106 62.33 44.0982C62.3525 42.6858 62.8386 41.3199 63.7134 40.2108C64.5882 39.1017 65.8033 38.3108 67.1716 37.9599C68.5399 37.6089 69.9856 37.7174 71.2862 38.2686C72.5868 38.8198 73.6702 39.7831 74.3697 41.0104C75.0692 42.2376 75.346 43.6607 75.1575 45.0607C74.969 46.4606 74.3256 47.7598 73.3264 48.7583L74.383 49.8157Z" fill="#39A2DB"/>
<path d="M71.8794 47.3103C70.1621 49.0264 67.3788 49.0254 65.6627 47.3081C63.9467 45.5908 63.9477 42.8075 65.6649 41.0914C67.3822 39.3753 70.1655 39.3763 71.8816 41.0936C73.5977 42.8109 73.5967 45.5942 71.8794 47.3103Z" fill="#39A2DB"/>
<path d="M186.655 67.3812C187.887 66.151 188.679 64.5504 188.911 62.8257C189.144 61.1009 188.803 59.3476 187.941 57.8357C187.079 56.3237 185.744 55.1369 184.142 54.4578C182.54 53.7787 180.758 53.6451 179.073 54.0774C177.387 54.5098 175.89 55.4841 174.812 56.8506C173.734 58.217 173.136 59.8997 173.108 61.6398C173.08 63.3799 173.625 65.0809 174.659 66.481C175.692 67.8811 177.158 68.9027 178.829 69.3885L179.246 67.9531C177.89 67.5588 176.7 66.7296 175.861 65.5932C175.022 64.4567 174.58 63.0761 174.602 61.6637C174.625 60.2513 175.111 58.8854 175.986 57.7763C176.861 56.6672 178.076 55.8763 179.444 55.5254C180.812 55.1744 182.258 55.2829 183.559 55.8341C184.859 56.3853 185.943 57.3486 186.642 58.5759C187.342 59.8031 187.618 61.2262 187.43 62.6262C187.241 64.0261 186.598 65.3253 185.599 66.3238L186.655 67.3812Z" fill="#39A2DB"/>
<path d="M184.152 64.8758C182.435 66.5919 179.651 66.5909 177.935 64.8736C176.219 63.1563 176.22 60.373 177.937 58.6569C179.655 56.9408 182.438 56.9418 184.154 58.6591C185.87 60.3764 185.869 63.1597 184.152 64.8758Z" fill="#39A2DB"/>
<path d="M193.082 97.5023C193.64 99.1509 194.724 100.571 196.167 101.543C197.61 102.515 199.333 102.986 201.07 102.884C202.808 102.781 204.463 102.11 205.782 100.974C207.1 99.8385 208.009 98.3009 208.369 96.5981C208.728 94.8953 208.517 93.1216 207.77 91.55C207.022 89.9784 205.779 88.696 204.231 87.9003C202.684 87.1045 200.917 86.8394 199.204 87.1459C197.491 87.4523 195.926 88.3132 194.75 89.5961L195.852 90.6062C196.807 89.5648 198.077 88.866 199.467 88.6173C200.858 88.3686 202.292 88.5837 203.548 89.2296C204.804 89.8756 205.813 90.9164 206.42 92.1921C207.027 93.4677 207.198 94.9074 206.906 96.2895C206.614 97.6717 205.877 98.9197 204.806 99.8416C203.736 100.763 202.392 101.308 200.982 101.391C199.572 101.475 198.174 101.092 197.002 100.303C195.83 99.514 194.951 98.3616 194.498 97.0235L193.082 97.5023Z" fill="#39A2DB"/>
<path d="M196.438 96.3677C195.66 94.0679 196.894 91.5731 199.194 90.7954C201.493 90.0177 203.988 91.2517 204.766 93.5515C205.544 95.8513 204.31 98.3461 202.01 99.1238C199.71 99.9015 197.215 98.6675 196.438 96.3677Z" fill="#39A2DB"/>
<path d="M160.616 132.536C159.7 134.016 159.296 135.756 159.466 137.488C159.636 139.22 160.371 140.848 161.557 142.122C162.743 143.395 164.314 144.244 166.03 144.537C167.745 144.83 169.51 144.551 171.051 143.743C172.592 142.935 173.826 141.643 174.561 140.066C175.296 138.488 175.492 136.713 175.12 135.013C174.747 133.313 173.826 131.783 172.499 130.657C171.171 129.532 169.511 128.874 167.773 128.785L167.696 130.278C169.107 130.35 170.455 130.884 171.532 131.798C172.61 132.711 173.357 133.953 173.66 135.333C173.962 136.713 173.803 138.154 173.206 139.434C172.609 140.715 171.608 141.763 170.357 142.419C169.106 143.075 167.674 143.301 166.282 143.064C164.889 142.826 163.613 142.137 162.651 141.103C161.688 140.069 161.092 138.748 160.954 137.342C160.816 135.936 161.144 134.524 161.887 133.323L160.616 132.536Z" fill="#39A2DB"/>
<path d="M163.628 134.4C164.905 132.335 167.614 131.697 169.679 132.974C171.744 134.252 172.382 136.961 171.104 139.025C169.827 141.09 167.118 141.728 165.053 140.451C162.989 139.173 162.351 136.464 163.628 134.4Z" fill="#39A2DB"/>
<path d="M97.6903 162.404C96.7747 163.884 96.3708 165.624 96.5408 167.356C96.7108 169.088 97.4453 170.716 98.6313 171.99C99.8172 173.264 101.389 174.112 103.104 174.405C104.82 174.698 106.584 174.419 108.125 173.611C109.667 172.803 110.9 171.511 111.635 169.934C112.37 168.357 112.567 166.581 112.194 164.881C111.822 163.181 110.901 161.651 109.573 160.526C108.246 159.4 106.585 158.742 104.847 158.653L104.771 160.146C106.181 160.219 107.529 160.752 108.607 161.666C109.684 162.579 110.432 163.821 110.734 165.201C111.037 166.581 110.877 168.022 110.28 169.302C109.684 170.583 108.683 171.632 107.432 172.287C106.18 172.943 104.748 173.169 103.356 172.932C101.964 172.694 100.688 172.005 99.7252 170.971C98.7626 169.937 98.1664 168.616 98.0284 167.21C97.8904 165.804 98.2183 164.392 98.9615 163.191L97.6903 162.404Z" fill="#39A2DB"/>
<path d="M100.702 164.268C101.98 162.203 104.689 161.565 106.753 162.842C108.818 164.12 109.456 166.829 108.179 168.893C106.901 170.958 104.192 171.596 102.128 170.319C100.063 169.042 99.425 166.332 100.702 164.268Z" fill="#39A2DB"/>
<path d="M77.6838 165.675C76.0243 166.199 74.5832 167.255 73.5822 168.678C72.5812 170.102 72.0757 171.815 72.1437 173.554C72.2116 175.293 72.8492 176.961 73.9583 178.302C75.0673 179.644 76.5864 180.583 78.2817 180.976C79.977 181.37 81.7546 181.195 83.3408 180.479C84.927 179.763 86.234 178.546 87.0606 177.014C87.8872 175.483 88.1876 173.722 87.9155 172.003C87.6435 170.284 86.8141 168.702 85.5549 167.501L84.5231 168.582C85.5451 169.558 86.2183 170.842 86.4391 172.237C86.66 173.632 86.4161 175.061 85.7452 176.304C85.0743 177.547 84.0134 178.535 82.7259 179.116C81.4383 179.698 79.9955 179.839 78.6195 179.52C77.2434 179.201 76.0104 178.438 75.1102 177.35C74.21 176.261 73.6925 174.907 73.6373 173.496C73.5822 172.084 73.9924 170.693 74.8049 169.538C75.6175 168.382 76.7872 167.526 78.1342 167.1L77.6838 165.675Z" fill="#39A2DB"/>
<path d="M78.7509 169.052C81.0659 168.321 83.5355 169.605 84.267 171.92C84.9984 174.234 83.7148 176.704 81.3998 177.436C79.0849 178.167 76.6153 176.883 75.8838 174.568C75.1523 172.253 76.436 169.784 78.7509 169.052Z" fill="#39A2DB"/>
<path d="M48.8767 135.791C47.2172 136.315 45.7761 137.37 44.7751 138.794C43.774 140.218 43.2686 141.931 43.3366 143.67C43.4045 145.409 44.0421 147.077 45.1511 148.418C46.2602 149.759 47.7793 150.699 49.4746 151.092C51.1699 151.485 52.9474 151.311 54.5337 150.595C56.1199 149.879 57.4269 148.661 58.2535 147.13C59.0801 145.598 59.3805 143.838 59.1084 142.119C58.8364 140.4 58.0069 138.818 56.7478 137.617L55.7159 138.698C56.7379 139.673 57.4112 140.957 57.632 142.353C57.8528 143.748 57.609 145.177 56.9381 146.42C56.2671 147.663 55.2063 148.651 53.9187 149.232C52.6312 149.813 51.1884 149.955 49.8123 149.636C48.4363 149.317 47.2033 148.554 46.3031 147.466C45.4029 146.377 44.8854 145.023 44.8302 143.611C44.7751 142.2 45.1853 140.809 45.9978 139.654C46.8103 138.498 47.9801 137.642 49.327 137.216L48.8767 135.791Z" fill="#39A2DB"/>
<path d="M49.9438 139.168C52.2588 138.437 54.7284 139.72 55.4598 142.035C56.1913 144.35 54.9076 146.82 52.5927 147.551C50.2778 148.283 47.8082 146.999 47.0767 144.684C46.3452 142.369 47.6289 139.9 49.9438 139.168Z" fill="#39A2DB"/>
<path d="M137.943 50.6393C141.715 51.1737 145.558 50.4538 148.881 48.5902C152.203 46.7266 154.822 43.8228 156.332 40.3255C157.843 36.8283 158.162 32.9315 157.241 29.2349C156.32 25.5383 154.21 22.2468 151.235 19.867C148.261 17.4872 144.586 16.151 140.778 16.064C136.969 15.977 133.237 17.144 130.157 19.3855C127.077 21.627 124.818 24.8187 123.73 28.4694C122.641 32.1201 122.782 36.0274 124.132 39.59L127.192 38.431C126.096 35.5393 125.982 32.3678 126.865 29.4046C127.749 26.4414 129.582 23.8507 132.082 22.0313C134.583 20.2119 137.612 19.2646 140.703 19.3353C143.794 19.4059 146.777 20.4905 149.191 22.4221C151.606 24.3538 153.319 27.0255 154.066 30.0259C154.814 33.0264 154.554 36.1893 153.328 39.028C152.102 41.8667 149.977 44.2237 147.28 45.7363C144.583 47.2489 141.464 47.8333 138.402 47.3995L137.943 50.6393Z" fill="#39A2DB"/>
<path d="M139.031 42.9627C133.769 42.2171 130.108 37.3472 130.853 32.0854C131.599 26.8235 136.469 23.1624 141.731 23.9079C146.993 24.6535 150.654 29.5234 149.908 34.7852C149.163 40.0471 144.293 43.7082 139.031 42.9627Z" fill="#39A2DB"/>
<path d="M100.844 29.0188C103.192 26.0194 104.49 22.3313 104.538 18.522C104.585 14.7128 103.379 10.9935 101.106 7.93659C98.8326 4.87971 95.6176 2.65466 91.9559 1.6039C88.2941 0.553144 84.3884 0.734913 80.8401 2.12123C77.2917 3.50756 74.2973 6.02159 72.3176 9.27641C70.338 12.5312 69.4829 16.3464 69.8839 20.1348C70.285 23.9232 71.9199 27.4749 74.5371 30.2431C77.1543 33.0113 80.6087 34.8427 84.3687 35.4554L84.8949 32.2258C81.843 31.7285 79.0391 30.242 76.9148 27.9951C74.7904 25.7482 73.4634 22.8654 73.1379 19.7904C72.8124 16.7154 73.5064 13.6187 75.1133 10.9768C76.7201 8.33487 79.1507 6.29427 82.0308 5.16901C84.911 4.04376 88.0811 3.89622 91.0533 4.7491C94.0255 5.60199 96.6351 7.40803 98.4804 9.88925C100.326 12.3705 101.304 15.3894 101.266 18.4813C101.227 21.5732 100.174 24.5668 98.2673 27.0013L100.844 29.0188Z" fill="#39A2DB"/>
<path d="M94.7392 24.2385C91.4626 28.4226 85.4146 29.1583 81.2305 25.8817C77.0463 22.6051 76.3107 16.5571 79.5872 12.373C82.8638 8.18885 88.9119 7.45315 93.096 10.7297C97.2801 14.0063 98.0158 20.0544 94.7392 24.2385Z" fill="#39A2DB"/>
<circle cx="104.561" cy="100.617" r="9.13337" fill="white" stroke="#39A2DB" stroke-width="2"/>
</svg>
