<svg width="22" height="22" viewBox="0 0 22 22" fill="none" xmlns="http://www.w3.org/2000/svg">
<path d="M21 13.5056H11H1M15.4444 5.44444V3.22222C15.4444 2.63285 15.2103 2.06762 14.7936 1.65087C14.3768 1.23413 13.8116 1 13.2222 1H8.77778C8.18841 1 7.62318 1.23413 7.20643 1.65087C6.78968 2.06762 6.55556 2.63285 6.55556 3.22222V5.44444H15.4444ZM3.22222 21H18.7778C19.3671 21 19.9324 20.7659 20.3491 20.3491C20.7659 19.9324 21 19.3671 21 18.7778V7.66667C21 7.0773 20.7659 6.51207 20.3491 6.09532C19.9324 5.67857 19.3671 5.44444 18.7778 5.44444H3.22222C2.63285 5.44444 2.06762 5.67857 1.65087 6.09532C1.23413 6.51207 1 7.0773 1 7.66667V18.7778C1 19.3671 1.23413 19.9324 1.65087 20.3491C2.06762 20.7659 2.63285 21 3.22222 21Z" stroke="white" stroke-width="2" stroke-linecap="round" stroke-linejoin="round"/>
<rect x="1" y="13.2222" width="20" height="7.77778" rx="1" fill="white"/>
</svg>
