<svg width="32" height="32" viewBox="0 0 32 32" fill="none" xmlns="http://www.w3.org/2000/svg">
<path fill-rule="evenodd" clip-rule="evenodd" d="M28.7999 20.8V8.00005C28.7999 7.15136 28.4628 6.33742 27.8627 5.73731C27.2626 5.13719 26.4486 4.80005 25.5999 4.80005H6.39995C5.55126 4.80005 4.73733 5.13719 4.13721 5.73731C3.53709 6.33742 3.19995 7.15136 3.19995 8.00005V20.8C3.19995 21.6487 3.53709 22.4627 4.13721 23.0628C4.73733 23.6629 5.55126 24 6.39995 24H11.2L16 28.8L20.8 24H25.5999C26.4486 24 27.2626 23.6629 27.8627 23.0628C28.4628 22.4627 28.7999 21.6487 28.7999 20.8ZM7.99995 11.2C7.99995 10.7757 8.16852 10.3687 8.46858 10.0687C8.76864 9.76862 9.1756 9.60005 9.59995 9.60005H22.4C22.8243 9.60005 23.2313 9.76862 23.5313 10.0687C23.8314 10.3687 23.9999 10.7757 23.9999 11.2C23.9999 11.6244 23.8314 12.0314 23.5313 12.3314C23.2313 12.6315 22.8243 12.8 22.4 12.8H9.59995C9.1756 12.8 8.76864 12.6315 8.46858 12.3314C8.16852 12.0314 7.99995 11.6244 7.99995 11.2ZM9.59995 16C9.1756 16 8.76864 16.1686 8.46858 16.4687C8.16852 16.7687 7.99995 17.1757 7.99995 17.6C7.99995 18.0244 8.16852 18.4314 8.46858 18.7314C8.76864 19.0315 9.1756 19.2 9.59995 19.2H14.4C14.8243 19.2 15.2313 19.0315 15.5313 18.7314C15.8314 18.4314 16 18.0244 16 17.6C16 17.1757 15.8314 16.7687 15.5313 16.4687C15.2313 16.1686 14.8243 16 14.4 16H9.59995Z" fill="#39A2DB"/>
</svg>
