<svg width="36" height="36" viewBox="0 0 36 36" fill="none" xmlns="http://www.w3.org/2000/svg">
<path d="M16.1999 3.59998C15.7225 3.59998 15.2647 3.78962 14.9271 4.12718C14.5895 4.46475 14.3999 4.92259 14.3999 5.39998C14.3999 5.87737 14.5895 6.3352 14.9271 6.67277C15.2647 7.01033 15.7225 7.19998 16.1999 7.19998H19.7999C20.2773 7.19998 20.7351 7.01033 21.0727 6.67277C21.4103 6.3352 21.5999 5.87737 21.5999 5.39998C21.5999 4.92259 21.4103 4.46475 21.0727 4.12718C20.7351 3.78962 20.2773 3.59998 19.7999 3.59998H16.1999Z" fill="#39A2DB"/>
<path fill-rule="evenodd" clip-rule="evenodd" d="M7.19995 9.00002C7.19995 8.04524 7.57924 7.12957 8.25437 6.45444C8.9295 5.77931 9.84517 5.40002 10.8 5.40002C10.8 6.83219 11.3689 8.2057 12.3816 9.2184C13.3943 10.2311 14.7678 10.8 16.2 10.8H19.8C21.2321 10.8 22.6056 10.2311 23.6183 9.2184C24.631 8.2057 25.1999 6.83219 25.1999 5.40002C26.1547 5.40002 27.0704 5.77931 27.7455 6.45444C28.4207 7.12957 28.7999 8.04524 28.7999 9.00002V28.8C28.7999 29.7548 28.4207 30.6705 27.7455 31.3456C27.0704 32.0207 26.1547 32.4 25.1999 32.4H10.8C9.84517 32.4 8.9295 32.0207 8.25437 31.3456C7.57924 30.6705 7.19995 29.7548 7.19995 28.8V9.00002ZM12.6 16.2C12.1226 16.2 11.6647 16.3897 11.3272 16.7272C10.9896 17.0648 10.8 17.5226 10.8 18C10.8 18.4774 10.9896 18.9352 11.3272 19.2728C11.6647 19.6104 12.1226 19.8 12.6 19.8H12.618C13.0953 19.8 13.5532 19.6104 13.8907 19.2728C14.2283 18.9352 14.418 18.4774 14.418 18C14.418 17.5226 14.2283 17.0648 13.8907 16.7272C13.5532 16.3897 13.0953 16.2 12.618 16.2H12.6ZM18 16.2C17.5226 16.2 17.0647 16.3897 16.7272 16.7272C16.3896 17.0648 16.2 17.5226 16.2 18C16.2 18.4774 16.3896 18.9352 16.7272 19.2728C17.0647 19.6104 17.5226 19.8 18 19.8H23.3999C23.8773 19.8 24.3352 19.6104 24.6727 19.2728C25.0103 18.9352 25.1999 18.4774 25.1999 18C25.1999 17.5226 25.0103 17.0648 24.6727 16.7272C24.3352 16.3897 23.8773 16.2 23.3999 16.2H18ZM12.6 23.4C12.1226 23.4 11.6647 23.5897 11.3272 23.9272C10.9896 24.2648 10.8 24.7226 10.8 25.2C10.8 25.6774 10.9896 26.1352 11.3272 26.4728C11.6647 26.8104 12.1226 27 12.6 27H12.618C13.0953 27 13.5532 26.8104 13.8907 26.4728C14.2283 26.1352 14.418 25.6774 14.418 25.2C14.418 24.7226 14.2283 24.2648 13.8907 23.9272C13.5532 23.5897 13.0953 23.4 12.618 23.4H12.6ZM18 23.4C17.5226 23.4 17.0647 23.5897 16.7272 23.9272C16.3896 24.2648 16.2 24.7226 16.2 25.2C16.2 25.6774 16.3896 26.1352 16.7272 26.4728C17.0647 26.8104 17.5226 27 18 27H23.3999C23.8773 27 24.3352 26.8104 24.6727 26.4728C25.0103 26.1352 25.1999 25.6774 25.1999 25.2C25.1999 24.7226 25.0103 24.2648 24.6727 23.9272C24.3352 23.5897 23.8773 23.4 23.3999 23.4H18Z" fill="#39A2DB"/>
</svg>
