<svg width="27" height="24" viewBox="0 0 27 24" fill="none" xmlns="http://www.w3.org/2000/svg">
<path d="M1 1H8.33333C9.62995 1 10.8735 1.51508 11.7903 2.43192C12.7071 3.34877 13.2222 4.59227 13.2222 5.88889V23C13.2222 22.0275 12.8359 21.0949 12.1483 20.4073C11.4606 19.7196 10.528 19.3333 9.55556 19.3333H1V1Z" stroke="#39A2DB" stroke-width="2" stroke-linecap="round" stroke-linejoin="round"/>
<path d="M25.4444 1H18.1111C16.8144 1 15.5709 1.51508 14.6541 2.43192C13.7372 3.34877 13.2222 4.59227 13.2222 5.88889V23C13.2222 22.0275 13.6085 21.0949 14.2961 20.4073C14.9837 19.7196 15.9164 19.3333 16.8888 19.3333H25.4444V1Z" stroke="#39A2DB" stroke-width="2" stroke-linecap="round" stroke-linejoin="round"/>
</svg>
