<svg width="35" height="34" viewBox="0 0 35 34" fill="none" xmlns="http://www.w3.org/2000/svg">
<path fill-rule="evenodd" clip-rule="evenodd" d="M21.3631 33.5892C28.6806 31.748 34.098 25.1243 34.098 17.2353C34.098 7.92226 26.5483 0.372551 17.2353 0.372551C7.92227 0.372551 0.372559 7.92226 0.372559 17.2353C0.372559 20.6913 1.41223 23.9045 3.19588 26.5791C3.21465 26.6073 3.23351 26.6354 3.25245 26.6634C5.31291 29.7127 8.34492 32.0517 11.9045 33.2368C12.7482 33.391 13.0556 32.8703 13.0556 32.4231C13.0556 32.2382 13.0525 31.9117 13.0484 31.4749L13.0484 31.473V31.4728C13.0435 30.9658 13.0373 30.3105 13.0329 29.5556C8.34241 30.5742 7.35277 27.2948 7.35277 27.2948C6.58569 25.3476 5.48011 24.8289 5.48011 24.8289C3.94906 23.7824 5.59605 23.8031 5.59605 23.8031C7.28858 23.9231 8.17885 25.5411 8.17885 25.5411C9.68298 28.1177 12.126 27.3734 13.0867 26.9428C13.2399 25.8527 13.6747 25.1095 14.1571 24.6881C10.4128 24.2627 6.47596 22.8155 6.47596 16.3538C6.47596 14.5133 7.13331 13.0081 8.21198 11.829C8.03806 11.4025 7.45939 9.68823 8.37657 7.3663C8.37657 7.3663 9.79271 6.91289 13.0142 9.09507C14.3589 8.72136 15.802 8.534 17.2357 8.52779C18.6674 8.534 20.1105 8.72136 21.4572 9.09507C24.6767 6.91289 26.0897 7.3663 26.0897 7.3663C27.01 9.68823 26.4313 11.4025 26.2574 11.829C27.3382 13.0081 27.9914 14.5133 27.9914 16.3538C27.9914 22.8321 24.0483 24.2575 20.2916 24.6747C20.8972 25.1954 21.4365 26.2244 21.4365 27.7979C21.4365 29.305 21.4273 30.6176 21.4211 31.4872V31.4873C21.4181 31.918 21.4158 32.24 21.4158 32.4231C21.4158 32.8744 21.7191 33.3993 22.5752 33.2347C25.5636 32.2372 28.1797 30.4268 30.1607 28.0657C27.9161 30.7415 24.8561 32.7103 21.3631 33.5892Z" fill="white"/>
</svg>
